<?xml version="1.0" encoding="UTF-8"?>
<svg id="Layer_1" data-name="Layer 1" xmlns="http://www.w3.org/2000/svg" viewBox="0 0 104.63 113.1">
  <defs>
    <style>
      .cls-1 {
        fill: #fff38b;
        stroke-width: 0px;
      }
    </style>
  </defs>
  <path class="cls-1" d="m100.74,21.26C81.25-3.14,45.66-7.13,21.26,12.37-3.14,31.86-7.13,67.44,12.37,91.84c19.49,24.4,55.07,28.39,79.48,8.9,3.26-2.6,6.22-5.56,8.83-8.81,9.34-11.6.93-28.79-13.93-28.79h0c-5.59-.01-10.86,2.62-14.21,7.09-3.72,5.1-9.68,8.09-16,8-11.98-.26-21.49-10.18-21.23-22.16.25-11.62,9.61-20.98,21.23-21.23,6.33-.06,12.3,2.95,16,8.09,3.35,4.5,8.63,7.14,14.23,7.13h0c14.91.02,23.25-17.19,13.98-28.8Z"/>
</svg>